<svg data-test="ff-logo-icon" class="ff-logo-icon" xmlns="http://www.w3.org/2000/svg" viewBox="0 0 451 65"><g fill="#222222" fill-rule="evenodd"> <title>Farfetch Logo</title> <rect style="stroke:none; fill: #fffff; fill-opacity:0" x="0" y="0" height="100%" width="100%"></rect> <polygon points="12.867 0 0 13.032 0 65 12.867 65 12.867 39.025 32.154 39.025 32.154 25.994 12.867 25.994 12.867 13.032 38.553 13.032 38.553 0"></polygon> <path d="M70.7063584,0 L57.8297872,13.0315116 L57.8297872,65 L70.7063584,65 L70.7063584,39.0250427 L83.5060913,39.0250427 L83.5060913,65 L96.3829787,65 L96.3829787,13.0315116 L83.5060913,0 L70.7063584,0 Z M70.7063584,25.9944919 L83.5060913,25.9944919 L83.5060913,13.0315116 L70.7063584,13.0315116 L70.7063584,25.9944919 Z"></path> <polygon points="437.714 0 437.714 25.994 424.914 25.994 424.914 0 412.037 0 412.037 65 424.914 65 424.914 39.025 437.714 39.025 437.714 65 450.59 65 450.59 0"></polygon> <path d="M120.478723,0 L120.478723,65 L133.278782,65 L133.278782,39.0250427 L146.183585,39.0250427 L146.183585,65 L159.031915,65 L159.031915,39.0250427 L146.183585,25.9938514 L159.031915,25.9938514 L159.031915,13.0315116 L146.183585,0 L120.478723,0 Z M133.278782,25.9938514 L146.184216,25.9938514 L146.184216,13.0315116 L133.278782,13.0315116 L133.278782,25.9938514 Z"></path> <polygon points="193.576 0 180.718 13.032 180.718 65 193.576 65 193.576 39.025 212.871 39.025 212.871 25.994 193.576 25.994 193.576 13.032 193.585 13.032 219.271 13.032 219.271 0"></polygon> <polygon points="296.426 0 296.378 13.032 309.222 13.032 309.222 65 322.086 65 322.086 13.032 334.931 13.032 334.931 0"></polygon> <polygon points="251.402 0 238.558 13.032 238.548 13.032 238.548 51.988 238.568 51.988 251.402 65 277.101 65 277.101 51.988 251.422 51.988 251.402 51.988 251.402 39.025 270.693 39.025 270.693 25.994 251.402 25.994 251.402 13.032 277.101 13.032 277.101 0"></polygon> <polygon points="364.656 0 351.798 13.032 351.798 51.988 364.656 65 390.351 65 390.351 51.988 364.665 51.988 364.665 13.032 390.341 13.032 390.341 0"></polygon></g></svg>
