<svg xmlns="http://www.w3.org/2000/svg" class="_1a2756" viewBox="0 0 9 12"><g stroke="none" fill="#ffffff" stroke-width="1px"><path d="M8.19 4.02H6.12V2.59a2.2 2.2 0 0 0-.54-1.44A1.85 1.85 0 0 0 5 .71a1.67 1.67 0 0 0-1.43 0 2.05 2.05 0 0 0-.98 1.08c-.1.25-.14.52-.14.8v1.43H.38a.25.25 0 0 0-.2.09.33.33 0 0 0-.08.21v6.55a.33.33 0 0 0 .09.22.26.26 0 0 0 .19.08l2.38.38H5.8l2.39-.38c.03 0 .07 0 .1-.02a.27.27 0 0 0 .15-.16.33.33 0 0 0 .02-.12V4.33a.33.33 0 0 0-.08-.21.25.25 0 0 0-.2-.09zm-5.2-1.43c0-.4.14-.76.38-1.02.23-.26.56-.42.91-.42.36 0 .68.16.92.42.23.26.38.62.38 1.01v1.44h-2.6V2.59z" stroke="none" fill="#ffffff" stroke-width="1px"></path><path d="M3.42 4.9c0 .2-.16.37-.35.37-.19 0-.34-.17-.34-.38 0-.2.15-.38.34-.38.2 0 .35.17.35.38M6.6 4.9c0 .2-.16.37-.35.37-.2 0-.35-.17-.35-.38 0-.2.16-.38.35-.38.19 0 .34.17.34.38" stroke="none" fill="#ffffff" stroke-width="1px"></path></g></svg>