<svg width="24" height="24" viewBox="0 2 24 24" xmlns="http://www.w3.org/2000/svg"> <path d="M18.5625 8.5918H5.4375S5 8.5918 5 9.008v9.0206c0 .0555 0 .111.0292.1665.029.056.0583.084.0875.139.029.028.0875.056.1458.083.0583.028.1167.028.175.028l3.675.555h5.8333l3.6167-.527c.0583 0 .1167 0 .175-.028.0583-.028.0875-.055.1458-.083.0292-.0275.0584-.083.0875-.1385.0292-.056.0292-.1113.0292-.167V8.98c0-.3885-.4375-.3885-.4375-.3885zM9.375 9.8408c-.2333 0-.4375-.1943-.4375-.4163s.2042-.4164.4375-.4164.4375.195.4375.417c0 .222-.2042.4165-.4375.4165zm5.25 0c-.2333 0-.4375-.1943-.4375-.4163s.2042-.4164.4375-.4164.4375.195.4375.417c0 .222-.2042.4165-.4375.4165zm-4.3622-1.249H8.4872C8.4872 5.4772 9.6212 4 12 4c2.4478 0 3.545 1.453 3.5128 4.6l-1.7756-.0164c.0235-2.3034-.4223-2.894-1.7372-2.894-1.256 0-1.7372.6268-1.7372 2.9022z" fill="#222222" fill-rule="evenodd" stroke="none" stroke-width="1px"></path> </svg>