<svg xmlns="http://www.w3.org/2000/svg" class="_2e005f" viewBox="0 0 34 24"><g stroke="none" fill="#000000" stroke-width="1px"><path d="M33.6 10.76h-3.43V7.09h-2.74v3.67H24v2.93h3.43v3.68h2.74v-3.68h3.42v-2.93zm-21.94-.74v4.58h5.98c-.46 2.77-2.7 4.78-5.98 4.78-3.62 0-6.56-3.28-6.56-7.16 0-3.88 2.94-7.15 6.56-7.15 1.63 0 3.09.6 4.24 1.77v.01L19 3.54A10.16 10.16 0 0 0 11.65.48C5.6.48.69 5.74.69 12.23s4.9 11.75 10.97 11.75c6.33 0 10.53-4.78 10.53-11.49 0-.86-.08-1.68-.21-2.47H11.66z" stroke="none" fill="#000000" stroke-width="1px"></path></g></svg>