<svg xmlns="http://www.w3.org/2000/svg" class="_7ee4c8 " viewBox="0 0 16 17"><g stroke="none" fill="#000000" stroke-width="1px"><path d="M15.17 12.7l-.1-.19c-.25-.6-3.46-1.5-3.72-1.52l-.22.01c-.4.08-.83.42-1.65 1.13a.53.53 0 0 1-.6.07c-1.09-.59-2.44-1.78-3.11-2.51-.72-.8-1.6-2.06-2.03-3.1a.5.5 0 0 1 .15-.56c.96-.83 1.37-1.23 1.4-1.67C5.3 4.11 4.75.91 4.17.6L4 .49C3.63.24 3.07-.1 2.45.02c-.15.02-.29.08-.43.16C1.61.45.6 1.13.12 2.03c-.28.56-.41 5.64 3.52 9.94 3.88 4.25 8.68 4.43 9.4 4.29h.01l.07-.02a5.43 5.43 0 0 0 2.1-1.6c.57-.7.17-1.5-.05-1.94" stroke="none" fill="#000000" stroke-width="1px"></path></g></svg>