<svg xmlns="http://www.w3.org/2000/svg" class="_2e005f" viewBox="0 0 19 25"><g stroke="none" fill="#000000" stroke-width="1px"><path d="M10.08.83C3.78.83.61 5.43.61 9.26c0 2.32.86 4.38 2.71 5.15.3.13.58 0 .67-.33l.27-1.09c.09-.34.05-.46-.2-.75a3.93 3.93 0 0 1-.87-2.65c0-3.4 2.51-6.46 6.53-6.46 3.56 0 5.52 2.21 5.52 5.17 0 3.9-1.7 7.18-4.2 7.18-1.4 0-2.43-1.17-2.1-2.6.4-1.71 1.17-3.56 1.17-4.8 0-1.1-.58-2.02-1.79-2.02-1.42 0-2.56 1.5-2.56 3.5 0 1.27.43 2.13.43 2.13l-1.7 7.36c-.51 2.18-.08 4.85-.05 5.12.02.16.23.2.32.08.13-.17 1.82-2.3 2.4-4.42l.93-3.7c.46.89 1.8 1.68 3.24 1.68 4.26 0 7.15-3.96 7.15-9.25 0-4-3.33-7.73-8.4-7.73" stroke="none" fill="#000000" stroke-width="1px"></path></g></svg>