<svg xmlns="http://www.w3.org/2000/svg" viewBox="0 0 56 56"><defs><style>.cls-1{fill:none;}.cls-2,.cls-3{fill:#222;}.cls-3{fill-rule:evenodd;}</style></defs><title stroke="none" fill="#000000" stroke-width="1px">ic_returns</title><g id="Layer_2" data-name="Layer 2" stroke="none" fill="#000000" stroke-width="1px"><g id="Layer_1-2" data-name="Layer 1" stroke="none" fill="#000000" stroke-width="1px"><rect class="cls-1" width="56" height="56" stroke="none" fill="none" stroke-width="1px"></rect><path class="cls-2" d="M31,13H21.41l2.3-2.29a1,1,0,0,0-1.42-1.42L17.59,14l4.7,4.71a1,1,0,0,0,1.42,0,1,1,0,0,0,0-1.42L21.41,15H31a3,3,0,0,1,3,3,1,1,0,0,0,2,0A5,5,0,0,0,31,13Z" stroke="none" fill="#222222" stroke-width="1px"></path><path class="cls-3" d="M28,34l19.4-5.82a2,2,0,0,0-.91-.52l-18-4.5a2,2,0,0,0-1,0l-18,4.56a2,2,0,0,0-.87.47Z" stroke="none" fill="#222222" stroke-width="1px"></path><path class="cls-3" d="M28,36,8,30v8.47a2,2,0,0,0,1.43,1.92l18,5.4a2,2,0,0,0,1.14,0l18-5.4A2,2,0,0,0,48,38.51V30Z" stroke="none" fill="#222222" stroke-width="1px"></path></g></g></svg>