<svg xmlns="http://www.w3.org/2000/svg" width="12" height="12" viewBox="0 0 12 12"> <path fill="#b6b6b6" fill-rule="evenodd" d="M5.324 9.195a3.875 3.875 0 0 1-3.87-3.87 3.874 3.874 0 0 1 3.87-3.87 3.874 3.874 0 0 1 3.87 3.87 3.875 3.875 0 0 1-3.87 3.87m6.463 1.563L9.563 8.535a5.31 5.31 0 0 0 1.085-3.21A5.33 5.33 0 0 0 5.324 0 5.33 5.33 0 0 0 0 5.324a5.33 5.33 0 0 0 5.324 5.325c1.16 0 2.287-.383 3.211-1.085l2.223 2.223a.723.723 0 0 0 1.028 0 .723.723 0 0 0 0-1.029" stroke="none" stroke-width="1px"></path> </svg>