<svg width="24" height="24" viewBox="0 2 24 24" xmlns="http://www.w3.org/2000/svg"> <path d="M20.47 10.087c-.07-.172-.21-.275-.388-.275h-5.885L12.39 4.275C12.32 4.103 12.177 4 12 4c-.178 0-.32.103-.39.275L9.802 9.812H3.918c-.178 0-.32.103-.39.275-.07.172 0 .344.142.447l4.75 3.405-1.808 5.535c-.07.172 0 .343.14.447.143.103.32.103.462 0L12 16.518l4.785 3.405c.07.034.142.068.248.068.106 0 .177-.032.248-.066.144-.104.215-.275.144-.447l-1.808-5.537 4.75-3.406c.106-.103.177-.275.106-.447z" fill="#222222" fill-rule="evenodd" stroke="none" stroke-width="1px"></path> </svg>