<svg xmlns="http://www.w3.org/2000/svg" class="_1a2756" viewBox="0 0 17 18"><g stroke="none" fill="#555555" stroke-width="1px"><path d="M2.11 7.78A7.46 7.46 0 0 1 14.8 2.54a7.34 7.34 0 0 1 0 10.47 7.46 7.46 0 0 1-10.51 0 7.34 7.34 0 0 1-2.18-5.23zm13.17 0a5.75 5.75 0 0 0-11.46 0c0 1.52.59 2.96 1.67 4.04a5.75 5.75 0 0 0 9.79-4.04z" stroke="none" fill="#555555" stroke-width="1px"></path><path d="M-.01 16.4c0-.2.08-.43.24-.6l3.95-3.93a.85.85 0 0 1 1.2 1.2l-3.94 3.94a.85.85 0 0 1-1.45-.6M9.93 10.54V8.17h2.39a.39.39 0 1 0 0-.78H9.93V5.02a.39.39 0 0 0-.78 0v2.37H6.77a.39.39 0 1 0 0 .78h2.38v2.37a.39.39 0 0 0 .78 0" stroke="none" fill="#555555" stroke-width="1px"></path></g></svg>